<svg width="40" height="40" viewBox="0 0 40 40" fill="none" xmlns="http://www.w3.org/2000/svg">
  <defs>
    <radialGradient id="orb" cx="32%" cy="28%" r="80%">
      <stop offset="0%" stop-color="#6ee7b7" />
      <stop offset="55%" stop-color="#10b981" />
      <stop offset="100%" stop-color="#047857" />
    </radialGradient>
  </defs>

  <circle cx="20" cy="20" r="19" fill="url(#orb)" />
  <path
    d="M20 39C9.5 39 1 30.5 1 20 1 12 6 5 13.5 2 8 6 5 12.5 5 19.5 5 30.6 13.9 39.6 25 40 23.4 39.6 21.7 39 20 39Z"
    fill="#ffffff"
    fill-opacity="0.12"
  />

  <g transform="rotate(-14 19 21)">
    <rect x="18.4" y="9" width="2.3" height="18" rx="1.15" fill="#fff" />
    <path
      d="M20.7 9c5 .8 8.3 4.4 7.6 8.7-.5-3-3.6-5.7-7.6-6.4Z"
      fill="#fff"
    />
    <ellipse cx="15.6" cy="27.4" rx="4.6" ry="3.5" fill="#fff" />
  </g>
</svg>
